HIERARCHY
ROOT Hips
{
	OFFSET -0.001795 -0.223333 0.028219
	CHANNELS 6 Xposition Yposition Zposition Zrotation Yrotation Xrotation 
	JOINT LeftUpLeg
	{
		OFFSET 0.069520 -0.091406 -0.006815
		CHANNELS 3 Zrotation Yrotation Xrotation
		JOINT LeftLeg
		{
			OFFSET 0.034277 -0.375199 -0.004496
			CHANNELS 3 Zrotation Yrotation Xrotation
			JOINT LeftFoot
			{
				OFFSET -0.013596 -0.397961 -0.043693
				CHANNELS 3 Zrotation Yrotation Xrotation
				JOINT LeftToe
				{
					OFFSET 0.026358 -0.055791 0.119288
					CHANNELS 3 Zrotation Yrotation Xrotation
					End Site
					{
						OFFSET 0.000000 0.000000 0.000000
					}
				}
			}
		}
	}
	JOINT RightUpLeg
	{
		OFFSET -0.067670 -0.090522 -0.004320
		CHANNELS 3 Zrotation Yrotation Xrotation
		JOINT RightLeg
		{
			OFFSET -0.038290 -0.382569 -0.008850
			CHANNELS 3 Zrotation Yrotation Xrotation
			JOINT RightFoot
			{
				OFFSET 0.015774 -0.398415 -0.042312
				CHANNELS 3 Zrotation Yrotation Xrotation
				JOINT RightToe
				{
					OFFSET -0.025372 -0.048144 0.123348
					CHANNELS 3 Zrotation Yrotation Xrotation
					End Site
					{
						OFFSET 0.000000 0.000000 0.000000
					}
				}
			}
		}
	}
	JOINT Spine
	{
		OFFSET -0.002533 0.108963 -0.026696
		CHANNELS 3 Zrotation Yrotation Xrotation
		JOINT Spine1
		{
			OFFSET 0.005487 0.135180 0.001092
			CHANNELS 3 Zrotation Yrotation Xrotation
			JOINT Spine2
			{
				OFFSET 0.001457 0.052922 0.025425
				CHANNELS 3 Zrotation Yrotation Xrotation
				JOINT Neck
				{
					OFFSET -0.002778 0.213870 -0.042857
					CHANNELS 3 Zrotation Yrotation Xrotation
					JOINT Head
					{
						OFFSET 0.005152 0.064970 0.051349
						CHANNELS 3 Zrotation Yrotation Xrotation
						End Site
						{
							OFFSET 0.000000 0.000000 0.000000
						}
					}
				}
				JOINT LeftShoulder
				{
					OFFSET 0.078845 0.121749 -0.034090
					CHANNELS 3 Zrotation Yrotation Xrotation
					JOINT LeftArm
					{
						OFFSET 0.090977 0.030469 -0.008868
						CHANNELS 3 Zrotation Yrotation Xrotation
						JOINT LeftForeArm
						{
							OFFSET 0.259612 -0.012772 -0.027456
							CHANNELS 3 Zrotation Yrotation Xrotation
							JOINT LeftHand
							{
								OFFSET 0.249234 0.008986 -0.001171
								CHANNELS 3 Zrotation Yrotation Xrotation
								End Site
								{
									OFFSET 0.000000 0.000000 0.000000
								}
							}
						}
					}
				}
				JOINT RightShoulder
				{
					OFFSET -0.081759 0.118833 -0.038615
					CHANNELS 3 Zrotation Yrotation Xrotation
					JOINT RightArm
					{
						OFFSET -0.096012 0.032551 -0.009143
						CHANNELS 3 Zrotation Yrotation Xrotation
						JOINT RightForeArm
						{
							OFFSET -0.253742 -0.013329 -0.021401
							CHANNELS 3 Zrotation Yrotation Xrotation
							JOINT RightHand
							{
								OFFSET -0.255298 0.007772 -0.005559
								CHANNELS 3 Zrotation Yrotation Xrotation
								End Site
								{
									OFFSET 0.000000 0.000000 0.000000
								}
							}
						}
					}
				}
			}
		}
	}
}
MOTION
Frames: 18
Frame Time: 0.050000
0.000000 0.943909 0.000000 0.713673 14.038124 3.083801 0.516562 0.096996 1.605054 -2.629086 0.230428 -3.817814 1.418245 5.841950 5.815175 0.000000 0.000000 0.000000 -2.562342 0.228774 -2.760735 0.842282 -0.102954 0.559602 -3.536705 -9.474502 4.105329 0.000000 0.000000 0.000000 1.267192 0.043919 -1.504846 1.997454 -1.012688 0.390890 -2.970609 -0.334813 6.801502 3.999844 -0.539962 -15.906854 0.000000 0.000000 0.000000 -24.358540 -10.706187 1.321635 -49.738699 -5.208261 -3.177595 0.758664 -22.270839 0.415732 0.000000 0.000000 0.000000 21.084199 6.307389 3.963207 54.142622 10.223149 -1.361967 -5.010098 21.456530 0.163633 0.000000 0.000000 0.000000 
0.001032 0.942722 0.000680 0.597036 14.193491 3.302133 0.244807 0.130057 1.853784 -2.448976 0.224543 -5.068961 1.879869 6.713588 5.964492 0.000000 0.000000 0.000000 -3.088639 0.240193 -3.114554 1.854363 -0.244208 0.801336 -3.425882 -9.149379 3.251681 0.000000 0.000000 0.000000 1.745206 0.075155 -2.297998 1.868065 -0.973452 0.619691 -3.648473 -0.335364 7.066917 4.097520 -0.432069 -16.971438 0.000000 0.000000 0.000000 -23.786857 -10.588595 1.248801 -50.387723 -5.077476 -3.316261 0.313822 -23.577349 0.511924 0.000000 0.000000 0.000000 20.958811 5.602369 3.601036 54.930632 9.863814 -1.513656 -4.458517 22.567724 0.291963 0.000000 0.000000 0.000000 
0.001951 0.943024 0.001163 0.412910 12.960303 3.330216 0.361575 0.113903 1.676408 -2.392376 0.231137 -4.430582 2.571159 7.888613 6.056120 0.000000 0.000000 0.000000 -3.316983 0.257363 -3.327180 2.251377 -0.292954 0.941331 -3.128106 -8.521535 3.744491 0.000000 0.000000 0.000000 2.008653 0.063041 -2.025332 1.523137 -0.648506 -1.087372 -3.284731 -1.061116 8.609454 3.096468 0.022154 -17.075213 0.000000 0.000000 0.000000 -23.543587 -9.837459 1.377757 -50.995450 -5.838401 -3.353632 0.380270 -22.090591 0.552860 0.000000 0.000000 0.000000 21.057618 6.147693 3.592034 54.192206 9.230914 -1.913295 -2.741822 24.310138 0.611356 0.000000 0.000000 0.000000 
0.002880 0.942754 0.001718 0.418187 13.134111 3.186576 -0.560623 0.191572 2.017058 -2.032250 0.216221 -4.375796 2.864881 7.939815 4.907103 0.000000 0.000000 0.000000 -3.295367 0.298402 -3.951385 2.489977 -0.318868 2.743190 -3.042702 -8.207060 2.766944 0.000000 0.000000 0.000000 1.665391 0.081594 -2.387143 1.840514 -0.922922 0.280998 -3.142464 -1.744246 7.708712 3.387718 -0.340394 -16.137619 0.000000 0.000000 0.000000 -23.926476 -10.161296 1.743935 -50.861709 -5.512338 -3.443499 0.555449 -22.116533 0.543048 0.000000 0.000000 0.000000 20.459831 6.060743 3.260930 55.169678 8.298929 -2.166851 -3.584336 25.051813 0.440238 0.000000 0.000000 0.000000 
0.003860 0.943461 0.002410 0.180867 12.519361 3.011358 -0.851761 0.225120 2.224045 -1.983075 0.217513 -4.266863 2.993224 8.172178 4.971069 0.000000 0.000000 0.000000 -2.773033 0.353628 -4.407465 2.147367 -0.251303 4.185782 -3.053729 -8.212362 2.485863 0.000000 0.000000 0.000000 1.414160 0.046611 -1.559609 2.633292 -1.255888 -0.223321 -3.426664 -2.192588 7.606348 3.393437 -0.430592 -16.058194 0.000000 0.000000 0.000000 -24.062837 -9.896924 1.831249 -50.930359 -5.940582 -3.334209 -0.677758 -21.183789 0.780788 0.000000 0.000000 0.000000 20.492319 5.106046 2.493769 54.983258 7.904697 -2.288340 -2.548410 26.380053 0.663154 0.000000 0.000000 0.000000 
0.004616 0.943302 0.003713 -0.055493 11.670267 2.756838 -1.257731 0.282530 2.630108 -1.046865 0.185759 -4.545120 3.708071 9.297245 4.701333 0.000000 0.000000 0.000000 -2.358764 0.458854 -5.576157 1.880430 -0.188934 6.357822 -3.076597 -8.191868 1.825681 0.000000 0.000000 0.000000 1.290767 0.031575 -1.164811 2.835202 -1.361624 -0.131054 -3.133056 -2.935815 7.765235 3.593013 -0.582813 -16.964489 0.000000 0.000000 0.000000 -23.986132 -9.923244 2.306395 -51.307652 -6.773736 -3.161088 -1.135230 -21.050691 0.910547 0.000000 0.000000 0.000000 20.024049 5.244842 2.215494 56.093195 8.017530 -2.196271 -3.160357 26.206901 0.479297 0.000000 0.000000 0.000000 
0.005067 0.943083 0.005494 -0.257939 10.667117 2.598857 -1.067605 0.294523 2.889417 -1.318453 0.203736 -4.654978 4.059273 10.022119 5.090035 0.000000 0.000000 0.000000 -2.060746 0.621332 -7.548432 2.049512 -0.219624 10.376913 -3.646576 -9.566507 1.758453 0.000000 0.000000 0.000000 0.945009 0.003131 -0.432439 3.055334 -1.440431 -0.399852 -3.149763 -3.582024 7.710683 3.849415 -0.826519 -17.293578 0.000000 0.000000 0.000000 -23.505753 -9.270068 2.345009 -51.568288 -7.166548 -3.135194 -1.893633 -21.863750 1.131975 0.000000 0.000000 0.000000 20.069420 4.860776 1.663341 56.589926 7.145235 -2.550544 -1.822532 26.601328 0.711549 0.000000 0.000000 0.000000 
0.004890 0.942466 0.007972 -0.112075 9.583526 2.070056 -1.834143 0.412486 3.705001 -0.587007 0.156373 -3.843151 4.672614 10.637437 3.724408 0.000000 0.000000 0.000000 -2.506839 0.750474 -9.880987 2.205735 -0.290591 15.840757 -4.220549 -10.900321 1.407754 0.000000 0.000000 0.000000 0.079069 -0.025362 0.587857 3.484368 -1.625287 -0.632790 -3.168277 -4.240185 8.283441 4.095447 -0.936244 -18.945231 0.000000 0.000000 0.000000 -23.180950 -8.987664 2.633555 -50.895622 -8.812005 -2.590702 -2.475109 -22.881767 1.356737 0.000000 0.000000 0.000000 20.595033 5.009222 1.407900 57.085785 6.949301 -2.682131 -2.198309 26.381069 0.570971 0.000000 0.000000 0.000000 
0.003718 0.941914 0.011289 -0.983099 9.366124 0.793128 -0.846480 0.475697 5.297280 -1.189866 0.199101 -4.347236 5.722758 12.600710 4.199326 0.000000 0.000000 0.000000 -2.009552 0.912158 -11.757269 3.109448 -0.687561 21.288652 -4.119161 -10.560688 0.871995 0.000000 0.000000 0.000000 -0.136863 -0.111299 2.794251 4.418722 -2.013302 -1.263698 -2.957515 -5.208311 8.435179 3.007256 -0.301322 -20.310720 0.000000 0.000000 0.000000 -22.849698 -9.691862 3.429019 -50.547728 -10.753136 -1.896372 -2.588456 -23.503370 1.466602 0.000000 0.000000 0.000000 19.558787 5.148871 1.197844 58.078808 6.691268 -2.806109 -0.298089 25.716009 0.886193 0.000000 0.000000 0.000000 
0.001239 0.942726 0.016137 -1.440297 8.826149 0.296092 -0.414839 0.515625 6.218895 -1.345536 0.211878 -4.521669 6.300673 13.431042 3.521028 0.000000 0.000000 0.000000 -2.676635 0.989712 -14.178503 4.788401 -1.358853 24.521537 -4.578711 -11.485905 -0.647061 0.000000 0.000000 0.000000 0.132622 -0.160847 3.679091 3.994814 -1.755788 -1.851643 -2.393222 -7.807961 9.193075 2.981464 -0.562899 -21.507059 0.000000 0.000000 0.000000 -22.631828 -9.563064 4.392481 -49.332139 -13.756550 -1.022997 -3.473424 -24.422749 1.856933 0.000000 0.000000 0.000000 18.752654 5.644211 0.701126 59.313988 5.547980 -3.402302 1.783287 25.800576 1.163866 0.000000 0.000000 0.000000 
-0.002334 0.942449 0.023457 -2.225247 7.003535 -0.057181 0.601653 0.559778 7.801154 -1.620407 0.253102 -5.882980 6.247015 13.605323 4.596707 0.000000 0.000000 0.000000 -2.273523 1.107712 -14.743825 4.675129 -1.036431 21.435127 -5.492439 -13.744210 -0.628969 0.000000 0.000000 0.000000 0.726690 -0.209455 4.174548 5.255619 -2.387218 -1.585919 -3.135266 -8.445692 9.289180 2.341388 -0.349825 -22.038997 0.000000 0.000000 0.000000 -22.060304 -11.451326 5.966963 -48.901451 -16.330550 -0.109898 -1.217477 -26.846821 1.604496 0.000000 0.000000 0.000000 18.008657 6.364884 0.732633 60.854053 4.845098 -3.834522 1.246333 26.149812 0.976760 0.000000 0.000000 0.000000 
-0.007269 0.940365 0.033067 -1.911586 6.678394 -0.631728 0.936710 0.630475 9.281651 -1.968389 0.278874 -6.784958 6.783611 14.605798 5.009015 0.000000 0.000000 0.000000 -2.609819 1.079003 -14.924500 4.038272 -0.718961 18.242054 -5.046993 -12.703361 0.241821 0.000000 0.000000 0.000000 0.315328 -0.211886 4.620153 5.908475 -2.628478 -2.258789 -3.660519 -10.710759 9.316674 1.272116 -0.078665 -21.711344 0.000000 0.000000 0.000000 -22.162529 -13.420619 7.925337 -47.684657 -19.664909 0.948082 2.140428 -28.563272 1.001112 0.000000 0.000000 0.000000 17.860202 7.979753 0.941141 61.115649 3.493407 -4.483046 1.709632 26.767046 0.942736 0.000000 0.000000 0.000000 
-0.013568 0.938729 0.044558 -1.544798 5.590231 -0.700458 0.315632 0.737747 9.574604 -0.761608 0.235215 -6.437240 6.053940 13.298138 4.678003 0.000000 0.000000 0.000000 -2.536741 1.168941 -15.868427 3.060394 -0.364244 16.962761 -4.090340 -10.506209 1.234559 0.000000 0.000000 0.000000 0.571149 -0.203180 4.253434 5.701187 -2.604236 -1.595228 -4.068905 -12.628317 8.746599 1.087268 -0.300302 -21.039013 0.000000 0.000000 0.000000 -20.321837 -14.480939 8.992412 -48.464905 -24.176372 2.887709 6.636892 -28.125010 0.006126 0.000000 0.000000 0.000000 18.369283 8.822399 0.596064 61.918295 3.099289 -4.583390 0.504019 26.167082 0.487835 0.000000 0.000000 0.000000 
-0.021265 0.937018 0.058430 -1.496264 4.357897 -0.625192 0.526227 0.754863 9.773096 -0.452604 0.186141 -4.842944 6.194317 13.393935 3.831184 0.000000 0.000000 0.000000 -1.995168 1.277501 -16.002546 1.302978 0.132459 14.123746 -3.637118 -9.738018 2.769807 0.000000 0.000000 0.000000 1.031083 -0.176199 3.382234 5.715603 -2.655129 -1.182833 -3.982710 -13.504161 9.067371 -0.844097 0.586844 -21.190508 0.000000 0.000000 0.000000 -20.755867 -16.883875 10.972600 -46.857520 -28.468727 4.351892 12.642997 -27.829777 -1.358664 0.000000 0.000000 0.000000 18.651565 9.704200 0.579897 61.178180 2.821784 -4.591866 -0.103597 26.504583 0.264102 0.000000 0.000000 0.000000 
-0.030357 0.934955 0.074872 -0.942673 4.587384 -0.808759 0.626504 0.718712 9.455148 -0.684112 0.128969 -2.116668 6.298669 13.399135 2.928841 0.000000 0.000000 0.000000 -1.828401 1.242263 -15.304031 0.105922 0.399317 13.370322 -3.514892 -9.643526 3.765670 0.000000 0.000000 0.000000 1.366983 -0.150745 2.725204 6.360483 -3.027642 -0.627462 -4.649765 -14.494532 8.327254 -1.526645 0.884758 -20.246717 0.000000 0.000000 0.000000 -21.229400 -17.997591 11.962745 -44.891467 -31.604126 5.285937 15.969933 -27.052773 -2.054745 0.000000 0.000000 0.000000 18.985453 10.375159 0.625998 61.318595 2.177625 -4.789715 -1.890195 27.374938 -0.218527 0.000000 0.000000 0.000000 
-0.040853 0.933895 0.092798 -0.487260 4.859930 -0.701904 1.523978 0.540973 8.192457 -2.038858 0.155648 2.499413 6.516513 13.456500 1.253717 0.000000 0.000000 0.000000 -1.957104 1.184005 -14.783070 0.440943 0.310528 13.208053 -2.922070 -8.458274 4.547172 0.000000 0.000000 0.000000 1.675540 -0.114750 1.925581 6.590845 -3.224484 0.102556 -4.322248 -15.498393 7.551289 -2.258521 1.198541 -19.193521 0.000000 0.000000 0.000000 -21.141209 -19.205392 12.948892 -44.201479 -34.288179 6.261747 20.239900 -26.691810 -2.899407 0.000000 0.000000 0.000000 19.167257 11.194365 0.733444 59.620931 1.822912 -4.593688 -0.772351 28.104535 -0.049234 0.000000 0.000000 0.000000 
-0.051840 0.933837 0.111144 -0.077628 4.592835 -0.926286 2.207986 0.335299 5.751833 -2.932961 0.142355 10.162728 7.094050 14.546933 1.060430 0.000000 0.000000 0.000000 -1.850340 1.119943 -13.687652 0.546511 0.281820 12.662995 -2.864504 -8.238094 4.033699 0.000000 0.000000 0.000000 1.629066 -0.101319 1.730880 7.165373 -3.485159 -0.097162 -3.963918 -15.343670 7.330006 -3.138693 1.714132 -18.621970 0.000000 0.000000 0.000000 -21.490558 -19.208903 13.066289 -43.593476 -36.141830 6.859674 23.431684 -25.773187 -3.412546 0.000000 0.000000 0.000000 19.418345 12.701045 1.478751 58.162407 1.961255 -4.273302 -2.777376 27.249184 -0.472002 0.000000 0.000000 0.000000 
-0.061973 0.936025 0.128330 0.096738 3.091993 -0.504569 3.512839 0.015443 1.299592 -4.793461 0.512388 18.448673 7.669440 15.847006 1.688697 0.000000 0.000000 0.000000 -1.639982 1.103904 -12.890930 1.339684 0.126690 12.067478 -2.646751 -7.787960 3.878108 0.000000 0.000000 0.000000 2.137336 -0.049250 0.617240 7.328950 -3.624732 0.533824 -3.607380 -13.909029 6.097131 -3.890573 2.267016 -17.623064 0.000000 0.000000 0.000000 -22.077720 -20.218155 13.632110 -42.390160 -36.755878 6.883178 26.013748 -24.066783 -3.700598 0.000000 0.000000 0.000000 18.943887 14.120810 2.459087 56.727472 1.492298 -4.263662 -2.235506 27.536259 -0.301961 0.000000 0.000000 0.000000 
